<svg width="44" height="11" viewBox="0 0 44 11" fill="none" xmlns="http://www.w3.org/2000/svg">
<path d="M1.97266 4.33984C1.64453 4.20703 1.37109 4.01953 1.15234 3.77734C0.941406 3.53516 0.769531 3.25 0.636719 2.92188C0.714844 2.71094 0.839844 2.53516 1.01172 2.39453C1.18359 2.24609 1.375 2.12109 1.58594 2.01953C1.80469 1.91797 2.03516 1.83594 2.27734 1.77344C2.51953 1.71094 2.75391 1.65625 2.98047 1.60938C3.02734 1.625 3.05078 1.625 3.05078 1.60938C3.05078 1.59375 3.07031 1.60156 3.10938 1.63281C3.39062 1.54688 3.71484 1.46484 4.08203 1.38672C4.44922 1.30078 4.83984 1.26953 5.25391 1.29297C5.30859 1.26172 5.375 1.24609 5.45312 1.24609C5.53125 1.23828 5.61328 1.23438 5.69922 1.23438C5.78516 1.23438 5.86719 1.23438 5.94531 1.23438C6.02344 1.22656 6.08984 1.21094 6.14453 1.1875C6.19141 1.24219 6.26172 1.27734 6.35547 1.29297C6.44922 1.30078 6.54688 1.33984 6.64844 1.41016C6.67969 1.41797 6.67969 1.40625 6.64844 1.375C6.61719 1.33594 6.62109 1.30859 6.66016 1.29297C6.76172 1.29297 6.85156 1.31641 6.92969 1.36328C7.00781 1.41016 7.07812 1.46484 7.14062 1.52734C7.21094 1.58203 7.27344 1.63281 7.32812 1.67969C7.39062 1.72656 7.45703 1.75 7.52734 1.75C7.59766 1.83594 7.67969 1.91797 7.77344 1.99609C7.875 2.06641 7.96875 2.14062 8.05469 2.21875C8.14844 2.29688 8.22266 2.38281 8.27734 2.47656C8.33984 2.57031 8.37109 2.67578 8.37109 2.79297C8.36328 2.83984 8.37891 2.86719 8.41797 2.875C8.45703 2.88281 8.48438 2.90625 8.5 2.94531C8.50781 3.23438 8.46094 3.48438 8.35938 3.69531C8.26562 3.90625 8.14453 4.10156 7.99609 4.28125C7.84766 4.45312 7.6875 4.61719 7.51562 4.77344C7.35156 4.92969 7.19922 5.09766 7.05859 5.27734C7.15234 5.39453 7.25781 5.50391 7.375 5.60547C7.5 5.69922 7.625 5.79297 7.75 5.88672C7.875 5.98047 7.99219 6.08203 8.10156 6.19141C8.21875 6.29297 8.31641 6.41016 8.39453 6.54297C8.41797 6.58984 8.46875 6.62109 8.54688 6.63672C8.57031 6.73047 8.60156 6.82812 8.64062 6.92969C8.6875 7.02344 8.73047 7.11719 8.76953 7.21094C8.80859 7.29688 8.83203 7.375 8.83984 7.44531C8.84766 7.51562 8.82812 7.57422 8.78125 7.62109C8.83594 7.65234 8.86719 7.70312 8.875 7.77344C8.88281 7.83594 8.88281 7.88672 8.875 7.92578C8.70312 8.13672 8.58594 8.28516 8.52344 8.37109C8.46094 8.45703 8.41406 8.51953 8.38281 8.55859C8.35156 8.59766 8.32031 8.63281 8.28906 8.66406C8.25781 8.69531 8.1875 8.75781 8.07812 8.85156C7.66406 9.10156 7.23047 9.32812 6.77734 9.53125C6.33203 9.72656 5.86719 9.85938 5.38281 9.92969C5.34375 9.98438 5.28516 10.0273 5.20703 10.0586C5.13672 10.0977 5.05469 10.1289 4.96094 10.1523C4.86719 10.1758 4.76562 10.1953 4.65625 10.2109C4.55469 10.2266 4.46094 10.2422 4.375 10.2578C4.33594 10.2422 4.3125 10.2148 4.30469 10.1758C4.30469 10.1445 4.28516 10.1211 4.24609 10.1055C4.23828 10.1992 4.19531 10.2461 4.11719 10.2461C4.04688 10.2539 3.95703 10.2383 3.84766 10.1992C3.73828 10.1602 3.625 10.1055 3.50781 10.0352C3.39062 9.96484 3.28906 9.89844 3.20312 9.83594C3.16406 9.90625 3.11328 9.98047 3.05078 10.0586C2.99609 10.1367 2.9375 10.1914 2.875 10.2227C2.76562 10.207 2.68359 10.1953 2.62891 10.1875C2.58203 10.1797 2.53516 10.1992 2.48828 10.2461C2.42578 10.2148 2.37891 10.1797 2.34766 10.1406C2.31641 10.1094 2.28516 10.0742 2.25391 10.0352C2.22266 10.0039 2.1875 9.97656 2.14844 9.95312C2.10938 9.92188 2.05078 9.89453 1.97266 9.87109C1.98828 9.83203 1.97656 9.77344 1.9375 9.69531C1.89844 9.60938 1.84375 9.55859 1.77344 9.54297C1.8125 9.48047 1.79688 9.40234 1.72656 9.30859C1.65625 9.20703 1.60156 9.09375 1.5625 8.96875C1.57031 8.91406 1.57422 8.85938 1.57422 8.80469C1.58203 8.74219 1.58984 8.6875 1.59766 8.64062C1.61328 8.58594 1.63281 8.53906 1.65625 8.5C1.67969 8.46094 1.71875 8.43359 1.77344 8.41797C1.76562 8.31641 1.73438 8.21875 1.67969 8.125C1.75 8.07031 1.79688 8.00391 1.82031 7.92578C1.84375 7.83984 1.86328 7.75391 1.87891 7.66797C1.90234 7.58203 1.92969 7.5 1.96094 7.42188C1.99219 7.33594 2.04297 7.26562 2.11328 7.21094C2.09766 7.1875 2.08203 7.16797 2.06641 7.15234C2.05078 7.13672 2.04297 7.10938 2.04297 7.07031C2.16016 6.875 2.24219 6.71094 2.28906 6.57812C2.33594 6.4375 2.37109 6.30469 2.39453 6.17969C2.42578 6.04688 2.45703 5.90625 2.48828 5.75781C2.51953 5.60938 2.58203 5.42188 2.67578 5.19531C2.66797 5.05469 2.68359 4.92969 2.72266 4.82031C2.76172 4.71094 2.80078 4.60547 2.83984 4.50391C2.88672 4.39453 2.92188 4.28125 2.94531 4.16406C2.96875 4.04688 2.96484 3.91016 2.93359 3.75391C2.80078 3.76953 2.70312 3.81641 2.64062 3.89453C2.58594 3.97266 2.55078 4.07812 2.53516 4.21094C2.46484 4.27344 2.375 4.30469 2.26562 4.30469C2.15625 4.29688 2.05859 4.30859 1.97266 4.33984ZM7.12891 6.60156C6.83203 6.4375 6.55859 6.33984 6.30859 6.30859C6.06641 6.27734 5.83203 6.28125 5.60547 6.32031C5.38672 6.35156 5.17578 6.39844 4.97266 6.46094C4.76953 6.52344 4.56641 6.57031 4.36328 6.60156C4.26172 6.86719 4.15625 7.16016 4.04688 7.48047C3.9375 7.80078 3.83203 8.11328 3.73047 8.41797C4.01172 8.37891 4.26953 8.32031 4.50391 8.24219C4.73828 8.16406 4.96484 8.07812 5.18359 7.98438C5.40234 7.88281 5.61719 7.78516 5.82812 7.69141C6.03906 7.58984 6.25781 7.49609 6.48438 7.41016C6.50781 7.31641 6.55859 7.24219 6.63672 7.1875C6.71484 7.13281 6.79297 7.08203 6.87109 7.03516C6.94922 6.98047 7.01562 6.92188 7.07031 6.85938C7.125 6.79688 7.14453 6.71094 7.12891 6.60156ZM6.30859 2.93359C5.82422 2.91797 5.34766 2.96094 4.87891 3.0625C4.41016 3.16406 4.01562 3.3125 3.69531 3.50781C3.85156 3.64062 4.01172 3.75781 4.17578 3.85938C4.34766 3.96094 4.47656 4.09766 4.5625 4.26953C4.9375 4.12109 5.26562 3.93359 5.54688 3.70703C5.82812 3.47266 6.08203 3.21484 6.30859 2.93359ZM15.7773 3.40234C15.7852 3.45703 15.7852 3.5 15.7773 3.53125C15.7773 3.55469 15.7734 3.57812 15.7656 3.60156C15.7656 3.625 15.7656 3.65234 15.7656 3.68359C15.7656 3.70703 15.7734 3.74609 15.7891 3.80078C15.625 4.06641 15.4336 4.25 15.2148 4.35156C15.0039 4.44531 14.7734 4.51562 14.5234 4.5625C14.2734 4.60156 14.0156 4.64453 13.75 4.69141C13.4922 4.73828 13.2344 4.83984 12.9766 4.99609C12.875 4.95703 12.7812 4.95703 12.6953 4.99609C12.6172 5.03516 12.5 5.04688 12.3438 5.03125C12.2969 5.07812 12.2383 5.11328 12.168 5.13672C12.0977 5.15234 12.0273 5.17188 11.957 5.19531C11.9883 5.26562 12 5.33984 11.9922 5.41797C11.9922 5.48828 12.0039 5.54688 12.0273 5.59375C12.3008 5.61719 12.6016 5.61328 12.9297 5.58203C13.2656 5.55078 13.5938 5.53125 13.9141 5.52344C13.9219 5.5625 13.918 5.58984 13.9023 5.60547C13.8867 5.61328 13.8828 5.63281 13.8906 5.66406C13.9453 5.70312 14 5.75391 14.0547 5.81641C14.1094 5.87109 14.1641 5.92578 14.2188 5.98047C14.2734 6.03516 14.3281 6.08203 14.3828 6.12109C14.4453 6.15234 14.5156 6.16406 14.5938 6.15625C14.625 6.21875 14.6445 6.28906 14.6523 6.36719C14.668 6.4375 14.6602 6.51172 14.6289 6.58984C14.5039 6.67578 14.3789 6.76562 14.2539 6.85938C14.1289 6.94531 13.9961 7.02344 13.8555 7.09375C13.7227 7.16406 13.5781 7.22266 13.4219 7.26953C13.2734 7.30859 13.1055 7.32422 12.918 7.31641C12.8789 7.31641 12.8477 7.31641 12.8242 7.31641C12.8086 7.31641 12.7852 7.30469 12.7539 7.28125C12.6914 7.32031 12.6016 7.33203 12.4844 7.31641C12.375 7.30078 12.2891 7.3125 12.2266 7.35156C12.1406 7.3125 12.0352 7.29688 11.9102 7.30469C11.793 7.30469 11.6875 7.28906 11.5938 7.25781C11.4688 7.42188 11.3555 7.59766 11.2539 7.78516C11.1523 7.97266 11.0625 8.17188 10.9844 8.38281C11.25 8.42188 11.4688 8.4375 11.6406 8.42969C11.8203 8.42188 11.9883 8.41016 12.1445 8.39453C12.3008 8.37109 12.4609 8.35156 12.625 8.33594C12.7891 8.3125 12.9961 8.30469 13.2461 8.3125C13.4023 8.22656 13.5859 8.17188 13.7969 8.14844C14.0156 8.11719 14.2148 8.07031 14.3945 8.00781C14.457 8.03125 14.5117 8.07422 14.5586 8.13672C14.6055 8.19141 14.6484 8.24609 14.6875 8.30078C14.7344 8.34766 14.7812 8.39062 14.8281 8.42969C14.875 8.46875 14.9336 8.48438 15.0039 8.47656C15.0352 8.50781 15.0547 8.54688 15.0625 8.59375C15.0781 8.63281 15.0898 8.67188 15.0977 8.71094C15.1055 8.75 15.1172 8.78516 15.1328 8.81641C15.1562 8.83984 15.1914 8.84766 15.2383 8.83984C15.1211 9.09766 14.9844 9.29688 14.8281 9.4375C14.6797 9.57031 14.5078 9.67188 14.3125 9.74219C14.1172 9.8125 13.8984 9.86719 13.6562 9.90625C13.4219 9.94531 13.1602 9.99219 12.8711 10.0469C12.8008 10.0625 12.7422 10.0586 12.6953 10.0352C12.6484 10.0195 12.5938 10.0117 12.5312 10.0117C12.3516 10.0508 12.1367 10.0859 11.8867 10.1172C11.6367 10.1484 11.3828 10.1602 11.125 10.1523C10.8672 10.1445 10.6211 10.1094 10.3867 10.0469C10.1523 9.99219 9.96094 9.89062 9.8125 9.74219C9.75 9.6875 9.70703 9.625 9.68359 9.55469C9.66797 9.47656 9.61719 9.41797 9.53125 9.37891C9.52344 9.27734 9.50781 9.16406 9.48438 9.03906C9.46094 8.91406 9.4375 8.78516 9.41406 8.65234C9.39062 8.51172 9.37109 8.375 9.35547 8.24219C9.34766 8.10938 9.35547 7.98828 9.37891 7.87891C9.40234 7.76172 9.44922 7.65625 9.51953 7.5625C9.59766 7.46875 9.625 7.36719 9.60156 7.25781C9.64062 7.25 9.66406 7.23047 9.67188 7.19922C9.67969 7.16016 9.71094 7.14453 9.76562 7.15234C9.8125 7.01172 9.86328 6.87891 9.91797 6.75391C9.97266 6.62891 10.0273 6.50781 10.082 6.39062C10.1445 6.27344 10.2031 6.15625 10.2578 6.03906C10.3203 5.91406 10.3789 5.77734 10.4336 5.62891C10.3242 5.52734 10.2422 5.41797 10.1875 5.30078C10.1406 5.17578 10.1055 5.05469 10.082 4.9375C10.0586 4.8125 10.0391 4.6875 10.0234 4.5625C10.0078 4.42969 9.98047 4.29688 9.94141 4.16406C10.0195 4.04688 10.1133 3.95312 10.2227 3.88281C10.3398 3.80469 10.4648 3.74219 10.5977 3.69531C10.7305 3.64844 10.875 3.60938 11.0312 3.57812C11.1875 3.54688 11.3516 3.51172 11.5234 3.47266C11.8359 3.37109 12.1133 3.29297 12.3555 3.23828C12.6055 3.18359 12.8477 3.14062 13.082 3.10938C13.3242 3.07031 13.5742 3.03516 13.832 3.00391C14.0898 2.97266 14.3828 2.92578 14.7109 2.86328C14.7812 2.93359 14.8477 2.96875 14.9102 2.96875C14.9414 2.89844 14.9766 2.87891 15.0156 2.91016C15.0625 2.93359 15.082 2.91016 15.0742 2.83984C15.1523 2.97266 15.25 3.08594 15.3672 3.17969C15.4922 3.26562 15.6289 3.33984 15.7773 3.40234ZM17.8984 7.86719C17.8281 7.88281 17.7773 7.92578 17.7461 7.99609C17.7148 8.05859 17.6836 8.125 17.6523 8.19531C17.6289 8.26562 17.6016 8.33203 17.5703 8.39453C17.5469 8.44922 17.5078 8.47656 17.4531 8.47656C17.4453 8.53906 17.4219 8.59375 17.3828 8.64062C17.3516 8.6875 17.3203 8.73828 17.2891 8.79297C17.2578 8.83984 17.2344 8.89453 17.2188 8.95703C17.2031 9.01172 17.2109 9.07812 17.2422 9.15625C17.1797 9.20312 17.1406 9.26953 17.125 9.35547C17.1094 9.44141 17.0898 9.52344 17.0664 9.60156C17.0508 9.67969 17.0195 9.74609 16.9727 9.80078C16.9258 9.85547 16.8398 9.87891 16.7148 9.87109C16.6914 9.90234 16.6875 9.92188 16.7031 9.92969C16.7188 9.9375 16.7305 9.96484 16.7383 10.0117C16.6523 9.99609 16.5859 10 16.5391 10.0234C16.5 10.0547 16.4492 10.0742 16.3867 10.082C16.2383 10.0352 16.1133 9.95312 16.0117 9.83594C15.918 9.71875 15.832 9.58984 15.7539 9.44922C15.6836 9.30078 15.6172 9.15234 15.5547 9.00391C15.5 8.85547 15.4453 8.72656 15.3906 8.61719C15.4141 8.53125 15.418 8.44922 15.4023 8.37109C15.3867 8.28516 15.3594 8.21484 15.3203 8.16016C15.7031 7.34766 16.1211 6.48047 16.5742 5.55859C17.0273 4.63672 17.457 3.72656 17.8633 2.82812C18.043 2.89844 18.2188 2.98047 18.3906 3.07422C18.5703 3.16016 18.7305 3.26172 18.8711 3.37891C19.0195 3.49609 19.1445 3.63281 19.2461 3.78906C19.3477 3.9375 19.4141 4.10547 19.4453 4.29297C19.4297 4.33984 19.4102 4.35938 19.3867 4.35156C19.3711 4.33594 19.3555 4.33984 19.3398 4.36328C19.3711 4.40234 19.3867 4.42969 19.3867 4.44531C19.3945 4.46094 19.3945 4.47656 19.3867 4.49219C19.3867 4.50781 19.3867 4.53125 19.3867 4.5625C19.3867 4.58594 19.3984 4.62109 19.4219 4.66797C19.3906 4.66016 19.3672 4.66406 19.3516 4.67969C19.3438 4.69531 19.3203 4.69531 19.2812 4.67969C19.3125 4.76562 19.3203 4.83594 19.3047 4.89062C19.2969 4.94531 19.2812 4.99609 19.2578 5.04297C19.2344 5.08203 19.2148 5.12891 19.1992 5.18359C19.1836 5.23047 19.1875 5.29297 19.2109 5.37109C19.1875 5.37109 19.168 5.37891 19.1523 5.39453C19.1445 5.40234 19.1367 5.41406 19.1289 5.42969C19.1211 5.4375 19.1094 5.44922 19.0938 5.46484C19.0859 5.47266 19.0703 5.47266 19.0469 5.46484C19.0703 5.63672 19.0781 5.80859 19.0703 5.98047C19.0625 6.15234 19.0547 6.32812 19.0469 6.50781C19.0469 6.67969 19.0508 6.86328 19.0586 7.05859C19.0664 7.24609 19.0938 7.44141 19.1406 7.64453C19.4219 7.48047 19.6445 7.26953 19.8086 7.01172C19.9805 6.75391 20.1172 6.46484 20.2188 6.14453C20.3281 5.82422 20.4102 5.48047 20.4648 5.11328C20.5195 4.74609 20.5781 4.37109 20.6406 3.98828C20.7109 3.91797 20.7656 3.83203 20.8047 3.73047C20.8438 3.62891 20.8789 3.52344 20.9102 3.41406C20.9414 3.29688 20.9727 3.18359 21.0039 3.07422C21.0352 2.95703 21.0742 2.85156 21.1211 2.75781C21.2383 2.77344 21.3359 2.8125 21.4141 2.875C21.5 2.92969 21.5781 2.99219 21.6484 3.0625C21.7188 3.125 21.793 3.1875 21.8711 3.25C21.9492 3.30469 22.0469 3.33984 22.1641 3.35547C22.2578 3.48828 22.3438 3.61719 22.4219 3.74219C22.5 3.86719 22.5508 4 22.5742 4.14062C22.5352 4.20312 22.5039 4.27344 22.4805 4.35156C22.4648 4.42969 22.4453 4.50781 22.4219 4.58594C22.3984 4.66406 22.3672 4.73828 22.3281 4.80859C22.2891 4.87109 22.2344 4.92578 22.1641 4.97266C22.1406 5.17578 22.1094 5.36328 22.0703 5.53516C22.0391 5.69922 22.0039 5.86328 21.9648 6.02734C21.9336 6.19141 21.9062 6.36328 21.8828 6.54297C21.8594 6.71484 21.8516 6.90625 21.8594 7.11719C21.7969 7.29688 21.7305 7.48828 21.6602 7.69141C21.5898 7.89453 21.5352 8.07812 21.4961 8.24219C21.3711 8.34375 21.2734 8.46484 21.2031 8.60547C21.1328 8.74609 21.0586 8.88672 20.9805 9.02734C20.9492 9.05859 20.9297 9.06641 20.9219 9.05078C20.9141 9.03516 20.8867 9.02344 20.8398 9.01562C20.8477 9.04688 20.8477 9.07031 20.8398 9.08594C20.832 9.10156 20.8203 9.11719 20.8047 9.13281C20.7969 9.14062 20.7891 9.15625 20.7812 9.17969C20.7812 9.20312 20.7891 9.23438 20.8047 9.27344C20.6953 9.32031 20.5977 9.38672 20.5117 9.47266C20.4258 9.55859 20.332 9.63672 20.2305 9.70703C20.1367 9.77734 20.0195 9.82422 19.8789 9.84766C19.7461 9.87109 19.5703 9.84375 19.3516 9.76562C19.0312 9.53125 18.7461 9.26172 18.4961 8.95703C18.2539 8.65234 18.0547 8.28906 17.8984 7.86719ZM24.6719 7.86719C24.6016 7.88281 24.5508 7.92578 24.5195 7.99609C24.4883 8.05859 24.457 8.125 24.4258 8.19531C24.4023 8.26562 24.375 8.33203 24.3438 8.39453C24.3203 8.44922 24.2812 8.47656 24.2266 8.47656C24.2188 8.53906 24.1953 8.59375 24.1562 8.64062C24.125 8.6875 24.0938 8.73828 24.0625 8.79297C24.0312 8.83984 24.0078 8.89453 23.9922 8.95703C23.9766 9.01172 23.9844 9.07812 24.0156 9.15625C23.9531 9.20312 23.9141 9.26953 23.8984 9.35547C23.8828 9.44141 23.8633 9.52344 23.8398 9.60156C23.8242 9.67969 23.793 9.74609 23.7461 9.80078C23.6992 9.85547 23.6133 9.87891 23.4883 9.87109C23.4648 9.90234 23.4609 9.92188 23.4766 9.92969C23.4922 9.9375 23.5039 9.96484 23.5117 10.0117C23.4258 9.99609 23.3594 10 23.3125 10.0234C23.2734 10.0547 23.2227 10.0742 23.1602 10.082C23.0117 10.0352 22.8867 9.95312 22.7852 9.83594C22.6914 9.71875 22.6055 9.58984 22.5273 9.44922C22.457 9.30078 22.3906 9.15234 22.3281 9.00391C22.2734 8.85547 22.2188 8.72656 22.1641 8.61719C22.1875 8.53125 22.1914 8.44922 22.1758 8.37109C22.1602 8.28516 22.1328 8.21484 22.0938 8.16016C22.4766 7.34766 22.8945 6.48047 23.3477 5.55859C23.8008 4.63672 24.2305 3.72656 24.6367 2.82812C24.8164 2.89844 24.9922 2.98047 25.1641 3.07422C25.3438 3.16016 25.5039 3.26172 25.6445 3.37891C25.793 3.49609 25.918 3.63281 26.0195 3.78906C26.1211 3.9375 26.1875 4.10547 26.2188 4.29297C26.2031 4.33984 26.1836 4.35938 26.1602 4.35156C26.1445 4.33594 26.1289 4.33984 26.1133 4.36328C26.1445 4.40234 26.1602 4.42969 26.1602 4.44531C26.168 4.46094 26.168 4.47656 26.1602 4.49219C26.1602 4.50781 26.1602 4.53125 26.1602 4.5625C26.1602 4.58594 26.1719 4.62109 26.1953 4.66797C26.1641 4.66016 26.1406 4.66406 26.125 4.67969C26.1172 4.69531 26.0938 4.69531 26.0547 4.67969C26.0859 4.76562 26.0938 4.83594 26.0781 4.89062C26.0703 4.94531 26.0547 4.99609 26.0312 5.04297C26.0078 5.08203 25.9883 5.12891 25.9727 5.18359C25.957 5.23047 25.9609 5.29297 25.9844 5.37109C25.9609 5.37109 25.9414 5.37891 25.9258 5.39453C25.918 5.40234 25.9102 5.41406 25.9023 5.42969C25.8945 5.4375 25.8828 5.44922 25.8672 5.46484C25.8594 5.47266 25.8438 5.47266 25.8203 5.46484C25.8438 5.63672 25.8516 5.80859 25.8438 5.98047C25.8359 6.15234 25.8281 6.32812 25.8203 6.50781C25.8203 6.67969 25.8242 6.86328 25.832 7.05859C25.8398 7.24609 25.8672 7.44141 25.9141 7.64453C26.1953 7.48047 26.418 7.26953 26.582 7.01172C26.7539 6.75391 26.8906 6.46484 26.9922 6.14453C27.1016 5.82422 27.1836 5.48047 27.2383 5.11328C27.293 4.74609 27.3516 4.37109 27.4141 3.98828C27.4844 3.91797 27.5391 3.83203 27.5781 3.73047C27.6172 3.62891 27.6523 3.52344 27.6836 3.41406C27.7148 3.29688 27.7461 3.18359 27.7773 3.07422C27.8086 2.95703 27.8477 2.85156 27.8945 2.75781C28.0117 2.77344 28.1094 2.8125 28.1875 2.875C28.2734 2.92969 28.3516 2.99219 28.4219 3.0625C28.4922 3.125 28.5664 3.1875 28.6445 3.25C28.7227 3.30469 28.8203 3.33984 28.9375 3.35547C29.0312 3.48828 29.1172 3.61719 29.1953 3.74219C29.2734 3.86719 29.3242 4 29.3477 4.14062C29.3086 4.20312 29.2773 4.27344 29.2539 4.35156C29.2383 4.42969 29.2188 4.50781 29.1953 4.58594C29.1719 4.66406 29.1406 4.73828 29.1016 4.80859C29.0625 4.87109 29.0078 4.92578 28.9375 4.97266C28.9141 5.17578 28.8828 5.36328 28.8438 5.53516C28.8125 5.69922 28.7773 5.86328 28.7383 6.02734C28.707 6.19141 28.6797 6.36328 28.6562 6.54297C28.6328 6.71484 28.625 6.90625 28.6328 7.11719C28.5703 7.29688 28.5039 7.48828 28.4336 7.69141C28.3633 7.89453 28.3086 8.07812 28.2695 8.24219C28.1445 8.34375 28.0469 8.46484 27.9766 8.60547C27.9062 8.74609 27.832 8.88672 27.7539 9.02734C27.7227 9.05859 27.7031 9.06641 27.6953 9.05078C27.6875 9.03516 27.6602 9.02344 27.6133 9.01562C27.6211 9.04688 27.6211 9.07031 27.6133 9.08594C27.6055 9.10156 27.5938 9.11719 27.5781 9.13281C27.5703 9.14062 27.5625 9.15625 27.5547 9.17969C27.5547 9.20312 27.5625 9.23438 27.5781 9.27344C27.4688 9.32031 27.3711 9.38672 27.2852 9.47266C27.1992 9.55859 27.1055 9.63672 27.0039 9.70703C26.9102 9.77734 26.793 9.82422 26.6523 9.84766C26.5195 9.87109 26.3438 9.84375 26.125 9.76562C25.8047 9.53125 25.5195 9.26172 25.2695 8.95703C25.0273 8.65234 24.8281 8.28906 24.6719 7.86719ZM32.793 6.92969C32.7383 6.97656 32.6914 7.03516 32.6523 7.10547C32.6133 7.16797 32.5742 7.23438 32.5352 7.30469C32.4961 7.39062 32.4531 7.47266 32.4062 7.55078C32.3594 7.62891 32.3008 7.69922 32.2305 7.76172C32.1914 7.87891 32.1523 7.97266 32.1133 8.04297C32.0742 8.10547 32.0117 8.17969 31.9258 8.26562C31.8477 8.57812 31.6641 8.91797 31.375 9.28516C31.3672 9.35547 31.3438 9.42578 31.3047 9.49609C31.2734 9.55859 31.2383 9.62109 31.1992 9.68359C31.1836 9.70703 31.168 9.73438 31.1523 9.76562C31.1367 9.78906 31.125 9.80859 31.1172 9.82422L31.0938 9.94141C31.0547 10.0039 31.0117 10.0586 30.9648 10.1055C30.918 10.1523 30.875 10.1953 30.8359 10.2344C30.8203 10.2578 30.793 10.2891 30.7539 10.3281L30.5781 10.3984C30.0078 10.3203 29.6602 10.0156 29.5352 9.48438L29.5469 9.36719C29.5625 9.32812 29.5742 9.28906 29.582 9.25C29.5977 9.20312 29.6133 9.15625 29.6289 9.10938C29.6602 9 29.6953 8.89062 29.7344 8.78125C29.7812 8.67188 29.8477 8.57422 29.9336 8.48828C29.9492 8.43359 29.9844 8.34766 30.0391 8.23047C30.0938 8.10547 30.1875 7.92188 30.3203 7.67969C30.4297 7.49219 30.5156 7.34375 30.5781 7.23438C30.6406 7.125 30.6914 7.03906 30.7305 6.97656C30.6523 6.85156 30.5586 6.73828 30.4492 6.63672C30.3477 6.44141 30.2578 6.25391 30.1797 6.07422C30.1094 5.89453 30.0547 5.73438 30.0156 5.59375C30.0078 5.49219 29.9961 5.40625 29.9805 5.33594C29.9648 5.26562 29.9492 5.19141 29.9336 5.11328C29.9102 5.02734 29.8906 4.94141 29.875 4.85547C29.8594 4.76953 29.8516 4.67969 29.8516 4.58594C29.8125 4.53125 29.7891 4.47656 29.7812 4.42188L29.8047 4.30469C29.8281 4.25 29.832 4.17969 29.8164 4.09375C29.8008 4 29.7812 3.90625 29.7578 3.8125C29.7422 3.73438 29.7227 3.64844 29.6992 3.55469C29.6836 3.46094 29.6797 3.36719 29.6875 3.27344C29.6953 3.17969 29.7188 3.09375 29.7578 3.01562C29.8047 2.92969 29.8789 2.85547 29.9805 2.79297L30.1797 2.78125C30.25 2.82031 30.3164 2.85938 30.3789 2.89844C30.4492 2.92969 30.5156 2.96484 30.5781 3.00391C30.6641 3.04297 30.7461 3.08203 30.8242 3.12109C30.9023 3.16016 30.9844 3.21094 31.0703 3.27344L31.1523 3.4375L31.3047 3.56641V3.69531C31.3125 3.72656 31.3164 3.76953 31.3164 3.82422C31.3164 3.92578 31.332 3.98828 31.3633 4.01172L31.4102 4.15234C31.4102 4.26172 31.4219 4.36719 31.4453 4.46875C31.4688 4.5625 31.4922 4.65234 31.5156 4.73828C31.5391 4.82422 31.5625 4.91406 31.5859 5.00781C31.6094 5.10156 31.6133 5.20312 31.5977 5.3125C31.6445 5.28906 31.6836 5.26172 31.7148 5.23047C31.7305 5.21484 31.7461 5.20312 31.7617 5.19531C31.7773 5.1875 31.793 5.17578 31.8086 5.16016L32.5 4.22266L32.4766 4.10547L32.7227 3.87109C32.7852 3.80859 32.8438 3.75 32.8984 3.69531C32.9609 3.64062 33.0117 3.58203 33.0508 3.51953L33.1797 3.42578C33.4297 3.03516 33.7852 2.79297 34.2461 2.69922L34.4102 2.67578L34.457 2.82812C34.4883 2.91406 34.5508 2.99219 34.6445 3.0625C34.7461 3.13281 34.8516 3.19922 34.9609 3.26172L35.0664 3.33203C35.1055 3.41016 35.125 3.46875 35.125 3.50781C35.125 3.54688 35.1211 3.58203 35.1133 3.61328L35.1602 3.73047C35.0977 3.91797 35.0195 4.05469 34.9258 4.14062C34.8398 4.22656 34.7539 4.30469 34.668 4.375C34.5977 4.4375 34.5312 4.49609 34.4688 4.55078C34.4141 4.59766 34.3711 4.66016 34.3398 4.73828L34.2578 4.83203C34.0938 4.92578 33.9883 5.05078 33.9414 5.20703L33.9062 5.34766H33.7656C33.7578 5.34766 33.7383 5.36328 33.707 5.39453C33.6836 5.41797 33.6445 5.48438 33.5898 5.59375C33.5352 5.67188 33.4961 5.72266 33.4727 5.74609C33.4492 5.76953 33.4297 5.78906 33.4141 5.80469C33.4062 5.83594 33.3945 5.86719 33.3789 5.89844C33.3711 5.92188 33.3594 5.95312 33.3438 5.99219C33.2422 6.09375 33.1797 6.17188 33.1562 6.22656C33.1328 6.27344 33.1055 6.32812 33.0742 6.39062C33.043 6.45312 33.0117 6.51562 32.9805 6.57812C32.957 6.63281 32.9141 6.69141 32.8516 6.75391L32.793 6.92969ZM37.3164 2.88672C37.3086 2.92578 37.2891 2.94922 37.2578 2.95703C37.2344 2.95703 37.2148 2.97656 37.1992 3.01562C37.168 3.10156 37.1484 3.15625 37.1406 3.17969C37.1328 3.19531 37.125 3.20703 37.1172 3.21484C37.1094 3.21484 37.0977 3.22266 37.082 3.23828C37.0742 3.25391 37.0547 3.30078 37.0234 3.37891C36.9688 3.48828 36.8984 3.60156 36.8125 3.71875C36.7344 3.82812 36.6836 3.9375 36.6602 4.04688C36.5508 4.14062 36.4141 4.26172 36.25 4.41016C36.0938 4.55078 35.9453 4.64844 35.8047 4.70312C35.7344 4.67188 35.6211 4.625 35.4648 4.5625C35.3164 4.49219 35.1719 4.41406 35.0312 4.32812C34.8984 4.23438 34.7969 4.14062 34.7266 4.04688C34.6562 3.94531 34.6641 3.84766 34.75 3.75391C34.8906 3.60547 35.0117 3.42969 35.1133 3.22656C35.2227 3.01562 35.3164 2.79297 35.3945 2.55859C35.4805 2.31641 35.5508 2.07031 35.6055 1.82031C35.668 1.5625 35.7227 1.31641 35.7695 1.08203C35.8008 1.11328 35.832 1.125 35.8633 1.11719C35.9023 1.10156 35.9336 1.08203 35.957 1.05859C35.9883 1.02734 36.0156 0.992188 36.0391 0.953125C36.0703 0.914062 36.0938 0.882812 36.1094 0.859375C36.1562 0.898438 36.2344 0.945313 36.3438 1C36.4609 1.05469 36.582 1.10938 36.707 1.16406C36.832 1.21094 36.9492 1.25391 37.0586 1.29297C37.168 1.33203 37.2461 1.35547 37.293 1.36328C37.3867 1.51172 37.4375 1.64844 37.4453 1.77344C37.4531 1.89062 37.4727 2.01562 37.5039 2.14844C37.457 2.1875 37.4297 2.25391 37.4219 2.34766C37.4141 2.43359 37.4062 2.49609 37.3984 2.53516C37.3906 2.59766 37.375 2.63672 37.3516 2.65234C37.3359 2.66016 37.3203 2.69141 37.3047 2.74609C37.2969 2.76172 37.2969 2.78516 37.3047 2.81641C37.3203 2.84766 37.3242 2.87109 37.3164 2.88672ZM36.4258 4.72656C36.4805 4.5625 36.5664 4.42188 36.6836 4.30469C36.8086 4.1875 36.9414 4.08984 37.082 4.01172C37.2305 3.92578 37.3828 3.85547 37.5391 3.80078C37.6953 3.74609 37.8438 3.69922 37.9844 3.66016C38.2969 3.52734 38.6289 3.40234 38.9805 3.28516C39.3398 3.16016 39.7031 3.05078 40.0703 2.95703C40.4453 2.86328 40.8281 2.80469 41.2188 2.78125C41.6094 2.75 42.0195 2.79688 42.4492 2.92188C42.4727 3 42.5078 3.07422 42.5547 3.14453C42.6016 3.21484 42.6484 3.28516 42.6953 3.35547C42.75 3.42578 42.7969 3.49609 42.8359 3.56641C42.875 3.62891 42.8984 3.69531 42.9062 3.76562C42.9844 3.83594 43.0469 3.91406 43.0938 4C43.1406 4.07812 43.1484 4.18359 43.1172 4.31641C43.0391 4.37891 42.9609 4.4375 42.8828 4.49219C42.8125 4.53906 42.7344 4.58203 42.6484 4.62109C42.3594 4.55078 42.0664 4.52734 41.7695 4.55078C41.4727 4.57422 41.207 4.59375 40.9727 4.60938C40.9023 4.53906 40.8164 4.50391 40.7148 4.50391C40.6211 4.50391 40.5195 4.51953 40.4102 4.55078C40.3086 4.58203 40.2031 4.61328 40.0938 4.64453C39.9922 4.67578 39.8945 4.68359 39.8008 4.66797C39.7227 4.73047 39.625 4.77344 39.5078 4.79688C39.3984 4.8125 39.2773 4.82812 39.1445 4.84375C39.1367 4.88281 39.1445 4.91016 39.168 4.92578C39.1914 4.93359 39.1953 4.95703 39.1797 4.99609C39.2266 5.05078 39.2852 5.08984 39.3555 5.11328C39.4336 5.13672 39.5117 5.16016 39.5898 5.18359C39.6758 5.20703 39.75 5.23828 39.8125 5.27734C39.875 5.30859 39.918 5.36328 39.9414 5.44141C40.0586 5.44141 40.1602 5.46875 40.2461 5.52344C40.332 5.57812 40.4023 5.64453 40.457 5.72266C40.5117 5.80078 40.5508 5.88672 40.5742 5.98047C40.6055 6.06641 40.6211 6.14453 40.6211 6.21484C40.6445 6.27734 40.6719 6.30469 40.7031 6.29688C40.7344 6.28906 40.7695 6.30469 40.8086 6.34375C40.832 6.44531 40.8906 6.55078 40.9844 6.66016C41.0781 6.76172 41.1523 6.875 41.207 7C41.2227 7.19531 41.2344 7.37109 41.2422 7.52734C41.25 7.67578 41.2227 7.82812 41.1602 7.98438C41.043 8.27344 40.8789 8.53125 40.668 8.75781C40.4648 8.98438 40.2305 9.1875 39.9648 9.36719C39.707 9.53906 39.4297 9.6875 39.1328 9.8125C38.8359 9.9375 38.5469 10.043 38.2656 10.1289C38.2344 10.1211 38.2031 10.1211 38.1719 10.1289C38.1406 10.1367 38.1328 10.1172 38.1484 10.0703C38.0859 10.125 38.0156 10.1602 37.9375 10.1758C37.8672 10.1914 37.7891 10.1953 37.7031 10.1875C37.6172 10.1875 37.5273 10.1836 37.4336 10.1758C37.3477 10.168 37.2656 10.1719 37.1875 10.1875C37.1328 10.1328 37.082 10.0781 37.0352 10.0234C36.9961 9.97656 36.9648 9.91406 36.9414 9.83594C36.9023 9.83594 36.8828 9.81641 36.8828 9.77734C36.8906 9.73828 36.8789 9.71875 36.8477 9.71875C36.8945 9.64062 36.9141 9.59766 36.9062 9.58984C36.9062 9.57422 36.8945 9.5625 36.8711 9.55469C36.8555 9.54688 36.8398 9.53906 36.8242 9.53125C36.8086 9.51562 36.8047 9.49609 36.8125 9.47266C36.8438 9.41016 36.8555 9.33984 36.8477 9.26172C36.8398 9.17578 36.832 9.08984 36.8242 9.00391C36.8164 8.91797 36.8203 8.83594 36.8359 8.75781C36.8594 8.67969 36.918 8.61719 37.0117 8.57031C37.2773 8.60156 37.5273 8.59375 37.7617 8.54688C38.0039 8.49219 38.2305 8.41797 38.4414 8.32422C38.6523 8.23047 38.8516 8.12891 39.0391 8.01953C39.2344 7.91016 39.4258 7.8125 39.6133 7.72656C39.6367 7.65625 39.668 7.59766 39.707 7.55078C39.7539 7.50391 39.8008 7.46094 39.8477 7.42188C39.8945 7.38281 39.9375 7.33984 39.9766 7.29297C40.0156 7.24609 40.043 7.1875 40.0586 7.11719C40.0664 7.0625 40.0508 7.03125 40.0117 7.02344C39.9805 7.00781 39.9648 6.97656 39.9648 6.92969L39.8359 6.89453C39.6875 6.80859 39.5195 6.73828 39.332 6.68359C39.1445 6.62109 38.9844 6.55469 38.8516 6.48438C38.7656 6.53125 38.6836 6.54297 38.6055 6.51953C38.5352 6.49609 38.4414 6.47266 38.3242 6.44922C38.0586 6.43359 37.8008 6.40625 37.5508 6.36719C37.3086 6.32812 37.0742 6.25781 36.8477 6.15625C36.832 6.11719 36.8125 6.08203 36.7891 6.05078C36.7656 6.01953 36.7227 6.01172 36.6602 6.02734C36.6133 5.96484 36.5664 5.90625 36.5195 5.85156C36.4727 5.78906 36.4297 5.72266 36.3906 5.65234C36.4062 5.55859 36.418 5.48047 36.4258 5.41797C36.4336 5.34766 36.4102 5.28125 36.3555 5.21875C36.3867 5.11719 36.4102 5.03516 36.4258 4.97266C36.4414 4.91016 36.4414 4.82812 36.4258 4.72656Z" fill="#F0E8FD"/>
</svg>
